<svg xmlns="http://www.w3.org/2000/svg" width="2500" height="2500" viewBox="0 0 192.756 192.756">
  <g fill-rule="evenodd" clip-rule="evenodd">
    <path
      d="M189.922 124.184V68.572h-57.99v55.612h57.99zm-13.215-39.641c-4.467-2.567-8.936-3.898-13.119-3.898-4.467 0-8.176 1.426-11.027 4.278-2.947 2.757-4.467 6.179-4.467 10.457 0 4.087 1.52 7.604 4.373 10.458 3.041 2.66 6.654 3.992 11.027 3.992 4.658 0 9.221-1.426 13.689-4.279v5.99c-4.184 2.281-8.842 3.422-13.975 3.422-4.373 0-7.986-.855-11.029-2.566a21.342 21.342 0 0 1-7.129-7.131c-1.711-3.23-2.662-6.463-2.662-9.886 0-5.704 1.996-10.362 6.084-14.165 3.994-3.803 8.938-5.799 14.736-5.799 4.182 0 8.65 1.046 13.498 3.232v5.895h.001zM125.469 68.572h-57.99v55.612h57.99V68.572zm-40.213 8.27h10.077c3.232 0 5.705.38 7.509 1.236 1.807.951 3.137 2.091 3.994 3.518.949 1.521 1.426 3.232 1.426 5.228 0 3.802-1.902 6.464-5.895 8.081 2.852.475 5.133 1.616 6.75 3.517 1.615 1.711 2.377 3.898 2.471 6.369-.094 1.902-.57 3.707-1.52 5.229-1.047 1.521-2.473 2.758-4.469 3.803-1.996.951-4.373 1.426-7.32 1.426H85.256V76.842z"
    />
    <path
      d="M94.382 93.289c2.946 0 5.038-.57 6.274-1.616 1.236-1.236 1.9-2.662 1.9-4.468 0-3.612-2.375-5.514-7.034-5.514H90.77v11.598h3.612zM95.903 98.232H90.77v12.072h5.514c2.566 0 4.658-.189 5.988-.57 1.236-.666 2.092-1.426 2.662-2.281.57-.951.951-1.996.951-3.137-.096-1.141-.381-2.188-1.047-3.137-.57-1.047-1.52-1.807-2.852-2.283-1.234-.474-3.326-.759-6.083-.664zM60.824 68.572H2.834v55.612h57.99V68.572zm-40.307 46.676V76.842h10.077c3.232 0 5.609.38 7.415 1.236 1.806.855 3.232 2.091 4.088 3.612.95 1.426 1.426 3.137 1.521 5.133-.095 3.802-1.996 6.464-5.989 8.175 2.947.476 5.133 1.616 6.75 3.422 1.616 1.711 2.472 3.898 2.472 6.369 0 1.996-.475 3.803-1.521 5.229-1.046 1.615-2.472 2.852-4.373 3.803-1.996.951-4.468 1.426-7.415 1.426H20.517v.001z"
    />
    <path
      d="M30.784 81.691h-4.753v11.598h3.707c2.852 0 4.943-.57 6.18-1.616 1.235-1.141 1.901-2.662 1.901-4.373-.001-3.708-2.377-5.609-7.035-5.609zM31.164 98.232h-5.133v12.072h5.418c2.852 0 4.943-.189 6.179-.57 1.046-.475 1.901-1.141 2.566-2.092.571-1.045.856-2.092.951-3.326-.095-1.332-.476-2.377-1.046-3.137a5.08 5.08 0 0 0-2.852-2.188c-1.33-.569-3.421-.759-6.083-.759z"
    />
  </g>
</svg>
