<?xml version="1.0" encoding="UTF-8" ?>
<svg xmlns="http://www.w3.org/2000/svg" width="500" height="500" viewBox="0,0 500 312">
  <title>SBB logo simplified</title>
  <rect x="0" y="0" width="500" height="312" fill="#de0023" />
  <path
    d="M 62.3,430 L 71.4,420.8 H 77.2 L 71,427.6 78.7,427.4 78.9,420.8 H 83.7 L 83.9,427.4 91.6,427.6 85.4,420.8 H 91.2 L 100.3,430 91.2,439.2 H 85.4 L 91.6,432.4 83.9,432.6 83.7,439.2 H 78.9 L 78.7,432.6 71,432.4 77.2,439.2 H 71.4 Z"
    fill="#fff"
  />
  <path
    d="M 38,156 L 140,54 H 204 L 135,129 221,127 223,54 H 277 L 279,127 H 363 L 365,129 296,54 H 360 L 462,156 360,259 H 296 L 365,183 279,185 277,259 H 223 L 221,185 135,183 204,259 H 140 Z"
    fill="#fff"
  />
</svg>
