<svg width="106.4" height="34.5" viewBox="71.6 6.0 106.4 34.5" xmlns="http://www.w3.org/2000/svg">
  <style type="text/css">
    path {
      fill: #242549;
    }

    @media (prefers-color-scheme: dark) {
      path {
        fill: white;
      }
    }
  </style>
  <path
    d="M71.6201 13.8597H76.6861V15.5711C77.8734 14.4179 79.5862 13.5444 81.8558 13.5444C85.8737 13.5444 89.5408 16.304 89.5408 20.88V32.3727H84.4748V22.1725C84.4748 19.7964 82.7975 18.2597 80.8063 18.2597C78.2555 18.2597 76.6847 20.3205 76.6847 22.8016V32.3727H71.6201V13.8597Z" />
  <path
    d="M134.514 9.10893C134.514 7.39752 135.911 6 137.623 6C139.334 6 140.732 7.39752 140.732 9.10893C140.732 10.8203 139.334 12.1837 137.623 12.1837C135.911 12.1837 134.514 10.8217 134.514 9.10893ZM135.038 13.8597H140.104V32.3741H135.038V13.8597Z" />
  <path
    d="M142.905 30.593V25.5625C144.233 26.4715 147.55 28.2525 150.345 28.2525C151.533 28.2525 152.861 27.9386 152.861 26.9246C152.861 25.9105 151.393 25.422 148.598 24.8283C144.372 23.9207 142.275 22.3485 142.275 19.3092C142.275 15.6407 145.489 13.5458 149.996 13.5458C152.896 13.5458 155.201 14.5243 157.123 15.537V20.0079C153.875 18.1559 151.185 17.8775 149.996 17.8775C148.285 17.8775 147.516 18.5408 147.516 19.2751C147.516 20.532 149.752 20.603 152.267 21.2662C156.354 22.3485 158.066 24.3056 158.066 27.031C158.066 31.3628 153.77 32.6552 150.345 32.6552C148.11 32.6552 145.629 32.1311 142.905 30.5944V30.593Z" />
  <path
    d="M160.109 7.92163H165.175V15.5725C166.362 14.4193 168.075 13.5458 170.344 13.5458C174.362 13.5458 178.029 16.3054 178.029 20.8814V32.3741H172.963V22.1739C172.963 19.7978 171.286 18.2611 169.295 18.2611C166.744 18.2611 165.173 20.3219 165.173 22.803V32.3741H160.107V7.92163H160.109Z" />
  <path
    d="M110.778 22.9257V13.8596H105.71V15.4659C104.418 14.3127 102.707 13.5798 100.61 13.5443C95.4406 13.4747 91.4582 17.4912 91.4582 22.8711C91.4582 22.9216 91.4596 22.9708 91.4609 23.0199C91.4596 23.069 91.4582 23.1182 91.4582 23.1687C91.4582 28.5486 95.4406 32.5651 100.61 32.4955C102.707 32.46 104.418 31.7271 105.71 30.5739V32.3726H110.776V23.1154H110.778V23.0213V22.9244V22.9257ZM104.646 26.5314C104.646 26.5314 104.635 26.5424 104.63 26.5478C104.6 26.5778 104.569 26.6065 104.538 26.6352C103.647 27.48 102.443 27.9999 101.118 27.9999C100.523 27.9999 99.9539 27.8948 99.4257 27.7038C97.9558 27.1824 96.8135 25.9965 96.3727 24.5198C96.3591 24.4747 96.3454 24.4283 96.3331 24.3833C96.3331 24.3792 96.3304 24.3751 96.329 24.371C96.2089 23.9425 96.1434 23.4921 96.1434 23.0254C96.1434 22.5586 96.2048 22.1396 96.3168 21.7247C96.8422 19.6203 98.7815 18.0508 101.1 18.0508C101.103 18.0508 101.106 18.0508 101.108 18.0508C101.111 18.0508 101.114 18.0508 101.117 18.0508C101.866 18.0508 102.576 18.2173 103.212 18.5135C103.224 18.5189 103.237 18.5244 103.25 18.5312C103.284 18.5476 103.318 18.5653 103.352 18.5831C103.396 18.6049 103.441 18.6267 103.484 18.6513C103.487 18.6527 103.49 18.654 103.494 18.6568C104.625 19.2682 105.489 20.2972 105.861 21.5282C105.871 21.5623 105.881 21.5978 105.892 21.6333C105.896 21.6497 105.901 21.6647 105.906 21.6797C106.026 22.1082 106.091 22.56 106.091 23.0267C106.091 23.5713 106.002 24.0953 105.84 24.5867C105.832 24.6112 105.824 24.6344 105.816 24.6576C105.803 24.6917 105.792 24.7245 105.78 24.7586C105.537 25.4301 105.145 26.0333 104.645 26.5328L104.646 26.5314Z" />
  <path
    d="M127.069 13.8596V15.4659C125.777 14.3127 124.065 13.5798 121.969 13.5443C116.799 13.4747 112.817 17.4912 112.817 22.8711C112.817 28.2511 116.589 32.1979 121.969 32.1979C124.17 32.1979 125.846 31.4992 127.069 30.4865V31.4296C127.069 34.155 125.532 35.7259 122.842 35.7259C121.34 35.7259 119.489 35.2373 118.685 33.2106H113.621C114.808 38.1715 118.79 40.4425 122.913 40.4425C128.293 40.4425 132.136 36.5993 132.136 31.4296V13.8596H127.07H127.069ZM122.467 27.9999C119.72 27.9999 117.492 25.7726 117.492 23.0254C117.492 22.4099 117.604 21.8216 117.809 21.2785C118.482 19.4033 120.305 18.0522 122.457 18.0522C122.459 18.0522 122.46 18.0522 122.463 18.0522C122.466 18.0522 122.466 18.0522 122.467 18.0522C122.875 18.0522 123.271 18.1027 123.649 18.1941C123.665 18.1982 123.68 18.2009 123.697 18.205C123.732 18.2146 123.768 18.2241 123.803 18.235C123.849 18.2487 123.897 18.261 123.944 18.2746C123.948 18.2746 123.952 18.2774 123.956 18.2787C125.677 18.8137 126.998 20.2412 127.334 21.9963C127.403 22.328 127.442 22.6733 127.442 23.0254C127.442 25.7726 125.214 27.9999 122.467 27.9999Z" />
  <path
    d="M20.4482 14.0916H25.5142V15.803C26.7016 14.6498 28.4144 13.7764 30.684 13.7764C34.7018 13.7764 38.369 16.5359 38.369 21.112V32.6047H33.303V22.4044C33.303 20.0284 31.6257 18.4916 29.6345 18.4916C27.0837 18.4916 25.5129 20.5524 25.5129 23.0336V32.6047H20.4482V14.0916Z" />
  <path fill-rule="evenodd" clip-rule="evenodd"
        d="M28.7282 45.8293V55.5C28.7282 55.5 30.6535 54.8488 33.5049 53.4883C41.6418 49.6061 57.3201 39.948 57.3201 23.1647C57.3201 10.6474 47.1633 0.500016 34.6343 0.500016L22.7916 0.5C10.2626 0.5 0.105835 10.6473 0.105835 23.1647C0.105835 35.682 10.2626 45.8293 22.7916 45.8293L28.7282 45.8293ZM33.5049 48.145C35.552 47.0664 37.8817 45.6822 40.1963 43.9819C46.8269 39.1112 52.5434 32.2723 52.5434 23.1647C52.5434 13.2896 44.5294 5.27669 34.6343 5.27669L22.7916 5.27667C12.8965 5.27667 4.88251 13.2896 4.88251 23.1647C4.88251 33.0397 12.8965 41.0526 22.7916 41.0526L33.5049 41.0526V48.145Z" />
</svg>
