<svg xmlns="http://www.w3.org/2000/svg" viewBox="0 0 100 33" fill="none">
  <path d="M13.385 3.92576V25.869C13.385 26.5503 12.7168 27.0298 12.0722 26.8084C9.04169 25.7668 1.81987 22.8516 1.81987 18.7088C1.81987 14.8384 8.10097 13.4103 8.10097 9.97758C8.09966 6.26185 0 3.47898 0 0.96864V0.948987C0.0039306 0.385601 0.466431 -0.0402142 1.02982 0.0030224C4.94994 0.309609 8.39708 1.35122 12.2989 2.48061C12.9422 2.66666 13.3863 3.25625 13.3863 3.92576H13.385Z" fill="#f9923c"></path>
  <path d="M15.2023 26.6499V4.70532C15.2023 4.02402 15.8705 3.54449 16.5151 3.76591C19.5456 4.80752 26.7674 7.72271 26.7674 11.8656C26.7674 15.7359 20.4863 17.164 20.4863 20.5967C20.4863 24.3151 28.586 27.0966 28.586 29.607V29.6266C28.582 30.19 28.1195 30.6172 27.5561 30.5726C23.636 30.266 20.1889 29.2244 16.2871 28.095C15.6438 27.909 15.1996 27.3194 15.1996 26.6499H15.2023Z" fill="#f9923c"></path>
  <path d="M41.6042 25.8453V4.72461H52.4738C56.4064 4.72461 58.8218 7.14008 58.8218 10.7486V11.0431C58.8218 13.8268 57.3784 15.7415 54.7715 16.3307C56.0823 16.7136 56.8629 17.7593 57.349 19.7182L57.9528 22.2515C58.4094 24.0779 58.9249 25.1972 59.5877 25.698V25.8453H55.4932C55.0955 25.0205 54.8451 24.0337 54.5064 22.443L54.1087 20.4988C53.6669 18.3779 52.6506 17.4795 50.7211 17.4795H45.0507V25.8453H41.6042ZM51.6049 14.9904C53.9467 14.9904 55.3754 13.5617 55.3754 11.2788V10.9842C55.3754 8.73076 53.9467 7.3021 51.6049 7.3021H45.0507V14.9904H51.6049Z" fill="#191412"></path>
  <path d="M63.3653 32.0755C62.5258 32.0755 61.7304 31.9871 61.4506 31.9429V29.2623C61.7746 29.3065 62.5552 29.3654 63.0413 29.3654C64.7498 29.3654 65.5893 28.6879 66.1637 27.2887L66.7234 25.9042L60.611 10.7633H64.087L68.4614 22.4577L72.7915 10.7633H76.2085L69.1241 28.2608C68.1079 30.7941 66.6203 32.0755 63.3653 32.0755Z" fill="#191412"></path>
  <path d="M78.3218 25.8453V4.72461H81.5473V25.8453H78.3218Z" fill="#191412"></path>
  <path d="M92.2178 26.3461C87.2691 26.3461 84.4559 23.5182 84.4559 18.54V18.0686C84.4559 13.0757 87.2691 10.2625 92.2178 10.2625C97.1814 10.2625 99.9945 13.0757 99.9945 18.0686V18.54C99.9945 23.5182 97.1814 26.3461 92.2178 26.3461ZM92.2326 23.96C94.9279 23.96 96.6953 22.1926 96.6953 18.6872V17.9214C96.6953 14.416 94.9279 12.6485 92.2326 12.6485C89.5225 12.6485 87.7551 14.416 87.7551 17.9214V18.6872C87.7551 22.1926 89.5225 23.96 92.2326 23.96Z" fill="#191412"></path>
</svg>
